<?xml version="1.0" encoding="UTF-8"?>
<svg width="64" height="64" viewBox="0 0 64 64" fill="none" xmlns="http://www.w3.org/2000/svg">
  <defs>
    <radialGradient id="rg" cx="0" cy="0" r="1" gradientUnits="userSpaceOnUse" gradientTransform="translate(32 32) rotate(90) scale(32)">
      <stop offset="0" stop-color="#60A5FA" stop-opacity="0.9"/>
      <stop offset="0.6" stop-color="#3B82F6" stop-opacity="0.6"/>
      <stop offset="1" stop-color="#0B1220" stop-opacity="0"/>
    </radialGradient>
  </defs>
  <rect width="64" height="64" rx="16" fill="#0B1220"/>
  <circle cx="32" cy="32" r="30" fill="url(#rg)"/>
  <circle cx="32" cy="32" r="22" stroke="#38BDF8" stroke-width="3"/>
  <path d="M32 18c-3.1 0-5.6 2.5-5.6 5.6v9.2c0 3.1 2.5 5.6 5.6 5.6s5.6-2.5 5.6-5.6v-9.2c0-3.1-2.5-5.6-5.6-5.6Z" fill="#E5E7EB"/>
  <path d="M22.8 32.3a1.2 1.2 0 0 1 2.4 0c0 3.7 3.1 6.8 6.8 6.8s6.8-3.1 6.8-6.8a1.2 1.2 0 0 1 2.4 0c0 4.8-3.6 8.8-8.2 9.4v2.1h2.4a1.2 1.2 0 0 1 0 2.4H28.6a1.2 1.2 0 0 1 0-2.4H31v-2.1c-4.6-.6-8.2-4.6-8.2-9.4Z" fill="#E5E7EB" fill-opacity="0.88"/>
</svg>
